<?xml version="1.0" encoding="iso-8859-1"?>
<!-- Generator: Adobe Illustrator 19.0.0, SVG Export Plug-In . SVG Version: 6.00 Build 0)  -->
<svg xmlns="http://www.w3.org/2000/svg" xmlns:xlink="http://www.w3.org/1999/xlink" version="1.1" id="Capa_1" x="0px" y="0px" viewBox="0 0 470 470" style="enable-background:new 0 0 470 470;" xml:space="preserve" width="512" height="512">
<g>
	<path style="fill:#66C6FE;" d="M100,184.782V442.5c0,11.046,8.954,20,20,20c11.046,0,20-8.954,20-20V184.782H100z"/>
	<path style="fill:#66C6FE;" d="M255,183.328V442.5c0,11.046,8.954,20,20,20c11.046,0,20-8.954,20-20V183.328H255z"/>
	<path style="fill:#66C6FE;" d="M120,7.5v200c41.42,0,75-33.58,75-75S175.85,7.5,120,7.5z"/>
	<path style="fill:#66C6FE;" d="M295,117.5l-20,90c27.61,0,50-22.39,50-50v-40H295z"/>
	<path style="fill:#99D9FF;" d="M120,7.5c33.51,0,45,83.58,45,125s-20.15,75-45,75c-41.42,0-75-33.58-75-75S64.15,7.5,120,7.5z"/>
	<path style="fill:#99D9FF;" d="M295,117.5v40c0,27.61-8.95,50-20,50c-27.61,0-50-22.39-50-50v-40H295z"/>
	<path style="fill:#66C6FE;" d="M385,217.5v225c0,11.05,8.95,20,20,20s20-8.95,20-20v-225H385z"/>
	<path style="fill:#66C6FE;" d="M390,7.5c-5.36,0-10.45,1.21-15,3.37l20,236.63h30v-205C425,23.17,409.33,7.5,390,7.5z"/>
	<path style="fill:#99D9FF;" d="M395,42.5v205h-10c-16.5,0-30-13.5-30-30v-175c0-13.96,8.18-26.01,20-31.63   C386.82,16.49,395,28.54,395,42.5z"/>
	<path d="M120,0C57.666,0,37.5,89.269,37.5,132.5c0,35.042,22.345,66.24,55,77.782V442.5c0,15.164,12.336,27.5,27.5,27.5   s27.5-12.336,27.5-27.5V210.282c32.655-11.542,55-42.74,55-77.782C202.5,89.269,182.334,0,120,0z M138.004,197.553   c-3.252,0.898-5.504,3.856-5.504,7.229V442.5c0,6.893-5.607,12.5-12.5,12.5s-12.5-5.607-12.5-12.5V204.782   c0-3.374-2.252-6.332-5.504-7.229C72.854,189.506,52.5,162.755,52.5,132.5C52.5,95.69,69.497,15,120,15s67.5,80.69,67.5,117.5   C187.5,162.755,167.146,189.506,138.004,197.553z"/>
	<path d="M325,0c-4.142,0-7.5,3.358-7.5,7.5V110h-18.333V7.5c0-4.142-3.358-7.5-7.5-7.5s-7.5,3.358-7.5,7.5V110h-18.333V7.5   c0-4.142-3.358-7.5-7.5-7.5s-7.5,3.358-7.5,7.5V110H232.5V7.5c0-4.142-3.358-7.5-7.5-7.5s-7.5,3.358-7.5,7.5v150   c0,21.176,11.625,40.49,30,50.498V442.5c0,15.164,12.336,27.5,27.5,27.5s27.5-12.336,27.5-27.5V207.998   c18.375-10.008,30-29.322,30-50.498V7.5C332.5,3.358,329.142,0,325,0z M291.997,196.455c-2.731,1.194-4.497,3.892-4.497,6.873   V442.5c0,6.893-5.607,12.5-12.5,12.5s-12.5-5.607-12.5-12.5V203.328c0-2.981-1.765-5.679-4.497-6.873   c-15.493-6.771-25.503-22.062-25.503-38.955V125h85v32.5C317.5,174.393,307.489,189.684,291.997,196.455z"/>
	<path d="M390,0c-23.435,0-42.5,19.065-42.5,42.5v175c0,18.109,12.905,33.262,30,36.747V442.5c0,15.164,12.336,27.5,27.5,27.5   s27.5-12.336,27.5-27.5v-400C432.5,19.065,413.435,0,390,0z M417.5,442.5c0,6.893-5.607,12.5-12.5,12.5s-12.5-5.607-12.5-12.5V255   h2.5c4.142,0,7.5-3.358,7.5-7.5s-3.358-7.5-7.5-7.5h-10c-12.407,0-22.5-10.093-22.5-22.5v-175c0-15.164,12.336-27.5,27.5-27.5   s27.5,12.336,27.5,27.5V442.5z"/>
	<circle cx="90" cy="117.5" r="7.5"/>
	<circle cx="120" cy="147.5" r="7.5"/>
</g>















</svg>
