<?xml version="1.0" encoding="iso-8859-1"?>
<!-- Generator: Adobe Illustrator 19.0.0, SVG Export Plug-In . SVG Version: 6.00 Build 0)  -->
<svg xmlns="http://www.w3.org/2000/svg" xmlns:xlink="http://www.w3.org/1999/xlink" version="1.1" id="Capa_1" x="0px" y="0px" viewBox="0 0 470.001 470.001" style="enable-background:new 0 0 470.001 470.001;" xml:space="preserve" width="512" height="512">
<g>
	<path style="fill:#FDFA7B;" d="M332.5,147.501l-81.25,255h30c33,0,62.242-26.907,64.983-59.793L362.5,147.501H332.5z"/>
	<path style="fill:#FEFDCA;" d="M316.233,342.708L332.5,147.501h-225l2.5,30h-7.5c-41.421,0-75,33.579-75,75   c0,41.421,33.579,75,75,75h20l1.267,15.207c2.74,32.886,31.983,59.793,64.983,59.793h62.5   C284.25,402.501,313.493,375.594,316.233,342.708z M102.5,297.501c-24.853,0-45-20.147-45-45c0-24.853,20.147-45,45-45h10l7.5,90   H102.5z"/>
	<path style="fill:#FDCE6E;" d="M402.5,432.501l-40,30h30c16.5,0,34.269-12.807,39.487-28.46l0.513-1.54H402.5z"/>
	<path style="fill:#FDFA7B;" d="M401.987,434.04l0.513-1.54h-365l0.513,1.54c5.218,15.653,22.987,28.46,39.487,28.46h285   C379,462.501,396.77,449.694,401.987,434.04z"/>
	<path d="M442.5,425.001h-415c-4.142,0-7.5,3.357-7.5,7.5s3.358,7.5,7.5,7.5h4.787c7.528,17.086,26.639,30,45.213,30h315   c18.575,0,37.686-12.914,45.212-30h4.788c4.143,0,7.5-3.357,7.5-7.5S446.643,425.001,442.5,425.001z M392.5,455.001h-315   c-10.255,0-21.389-6.325-27.902-15h370.804C413.89,448.676,402.756,455.001,392.5,455.001z"/>
	<circle cx="294" cy="335.001" r="7.5"/>
	<circle cx="264" cy="365.001" r="7.5"/>
	<path d="M102.5,305.001H120c2.097,0,4.099-0.878,5.519-2.422c1.42-1.543,2.129-3.61,1.955-5.701l-7.5-90   c-0.324-3.887-3.573-6.877-7.474-6.877h-10c-28.949,0-52.5,23.552-52.5,52.5S73.552,305.001,102.5,305.001z M102.5,215.001h3.099   l6.25,75H102.5c-20.678,0-37.5-16.822-37.5-37.5S81.823,215.001,102.5,215.001z"/>
	<path d="M102.5,335.001H115.6l0.694,8.33c3.063,36.762,35.567,66.67,72.457,66.67h92.5c36.89,0,69.394-29.908,72.456-66.67   l16.268-195.207c0.175-2.091-0.534-4.158-1.954-5.701c-1.421-1.544-3.422-2.422-5.52-2.422h-255c-2.097,0-4.099,0.878-5.519,2.422   c-1.42,1.543-2.129,3.61-1.955,5.701l1.823,21.88C56.657,170.354,20,207.227,20,252.501C20,297.991,57.01,335.001,102.5,335.001z    M102.5,185.001h7.5c2.097,0,4.099-0.878,5.519-2.422c1.42-1.543,2.129-3.61,1.955-5.701l-1.823-21.877h238.698l-15.591,187.084   c-2.431,29.178-28.229,52.916-57.508,52.916h-92.5c-29.279,0-55.077-23.738-57.508-52.916l-1.268-15.207   c-0.324-3.887-3.574-6.877-7.474-6.877h-20c-37.22,0-67.5-30.28-67.5-67.5S65.281,185.001,102.5,185.001z"/>
	<path style="fill:#FFCFB2;" d="M210,90.001c0-11.837,3.051-17.432,6.584-23.909C220.529,58.86,225,50.664,225,35.001   c0-15.631-4.454-23.825-8.394-31.046C215.341,1.601,212.857,0,209.998,0c-4.142,0-7.5,3.358-7.5,7.5   c0,1.307,0.336,2.535,0.924,3.605C206.952,17.578,210,23.171,210,35.001c0,11.837-3.051,17.432-6.584,23.909   C199.472,66.142,195,74.338,195,90.001c0,15.662,4.471,23.858,8.415,31.09c1.361,2.496,3.935,3.91,6.591,3.91   c1.213,0,2.444-0.295,3.584-0.917c3.637-1.983,4.977-6.539,2.993-10.175C213.051,107.431,210,101.838,210,90.001z"/>
	<path style="fill:#FFCFB2;" d="M260,90.001c0-11.837,3.051-17.432,6.584-23.909C270.529,58.86,275,50.664,275,35.001   c0-15.631-4.454-23.825-8.394-31.046C265.341,1.601,262.857,0,259.998,0c-4.142,0-7.5,3.358-7.5,7.5   c0,1.307,0.336,2.535,0.924,3.605C256.952,17.578,260,23.171,260,35.001c0,11.837-3.051,17.432-6.584,23.909   C249.472,66.142,245,74.338,245,90.001c0,15.662,4.471,23.858,8.415,31.09c1.361,2.496,3.935,3.91,6.591,3.91   c1.213,0,2.444-0.295,3.584-0.917c3.637-1.983,4.977-6.539,2.993-10.175C263.051,107.431,260,101.838,260,90.001z"/>
</g>















</svg>
